# xmcd
#
# Track frame offsets: 
#        150
#        16011
#        34192
#        57587
#        81555
#        104946
#        123480
#        143157
#        160268
#        181864
#
# Disc length: 2706 seconds
#
# Revision: 0
# Processed by: cddbd v1.5.2PL0 Copyright (c) Steve Scherf et al.
# Submitted via: ExactAudioCopyFreeDBPlugin 1.0
#
DISCID=8b0a900a
DTITLE=Various Artist - Toc nau moi tram
DYEAR=1900
DGENRE=
TTITLE0=My Tam - Toc nau moi tram
TTITLE1=Tran Thu Ha - Mua he ky niem
TTITLE2=Thu Phuong - Suong dem
TTITLE3=Tran Thu Ha - Ao hoa 
TTITLE4=My Tam - Mai yeu
TTITLE5=Tran Thu Ha - Dung giau di tram huong
TTITLE6=Thu Phuong - Co gai den tu hom qua
TTITLE7=My Tam - Tinh mai xanh
TTITLE8=Thu Phuong - Em se hat
TTITLE9=My Tam - To love you more
EXTD=
EXTT0=
EXTT1=
EXTT2=
EXTT3=
EXTT4=
EXTT5=
EXTT6=
EXTT7=
EXTT8=
EXTT9=
PLAYORDER=
